<?xml version="1.0" standalone="no"?>
<!DOCTYPE svg PUBLIC "-//W3C//DTD SVG 20010904//EN"
 "http://www.w3.org/TR/2001/REC-SVG-20010904/DTD/svg10.dtd">
<svg version="1.0" xmlns="http://www.w3.org/2000/svg"
 width="700.000000pt" height="700.000000pt" viewBox="0 0 700.000000 700.000000"
 preserveAspectRatio="xMidYMid meet">
<metadata>
Created by potrace 1.14, written by Peter Selinger 2001-2017
</metadata>
<g transform="translate(0.000000,700.000000) scale(0.100000,-0.100000)"
fill="#000000" stroke="none">
<path d="M3280 6994 c-19 -2 -84 -9 -145 -14 -585 -57 -1178 -282 -1670 -633
-234 -167 -517 -435 -698 -662 -415 -517 -675 -1149 -749 -1820 -17 -155 -17
-575 0 -730 52 -469 198 -931 418 -1327 290 -523 731 -983 1239 -1294 439
-269 920 -432 1460 -496 145 -17 576 -17 730 0 678 75 1288 327 1828 755 133
105 430 403 541 542 625 786 881 1778 715 2775 -100 603 -369 1182 -770 1660
-121 144 -350 368 -494 483 -509 408 -1117 662 -1775 743 -117 15 -553 27
-630 18z m1700 -3494 l0 -1950 -1480 0 -1480 0 0 1950 0 1950 1480 0 1480 0 0
-1950z"/>
<path d="M2150 3500 l0 -1820 1350 0 1350 0 0 1820 0 1820 -1350 0 -1350 0 0
-1820z m2410 1220 l0 -300 -1060 0 -1060 0 0 300 0 300 1060 0 1060 0 0 -300z
m-2 -557 l-3 -38 -1055 0 -1055 0 -3 38 -3 37 1061 0 1061 0 -3 -37z m2 -208
l0 -35 -1060 0 -1060 0 0 35 0 35 1060 0 1060 0 0 -35z m-2 -232 l-3 -38
-1055 0 -1055 0 -3 38 -3 37 1061 0 1061 0 -3 -37z m-1280 -320 l-3 -38 -415
0 -415 0 -3 38 -3 37 421 0 421 0 -3 -37z m1242 -318 l0 -355 -500 0 -500 0 0
355 0 355 500 0 500 0 0 -355z m-1240 110 l0 -35 -420 0 -420 0 0 35 0 35 420
0 420 0 0 -35z m0 -210 l0 -35 -420 0 -420 0 0 35 0 35 420 0 420 0 0 -35z m0
-210 l0 -35 -420 0 -420 0 0 35 0 35 420 0 420 0 0 -35z m190 -545 l0 -250
-510 0 -510 0 0 250 0 250 510 0 510 0 0 -250z m1090 205 l0 -35 -425 0 -425
0 0 35 0 35 425 0 425 0 0 -35z m0 -210 l0 -35 -425 0 -425 0 0 35 0 35 425 0
425 0 0 -35z m0 -210 l0 -35 -425 0 -425 0 0 35 0 35 425 0 425 0 0 -35z"/>
</g>
</svg>
